{
  "source": "C:\\Users\\Peter\\Desktop\\stuff\\MIUN\\quantitative_research\\video_compression\\videos\\BVI-HD\\BVI-HD_CDVL_videos\\ORIG\\RockWave_1920x1080_30fps.mp4",
  "output": "C:\\Users\\Peter\\Desktop\\stuff\\MIUN\\quantitative_research\\video_compression\\compressed_videos\\BVI-HD\\h264\\8\\RockWave_1920x1080_30fps_h264.mp4",
  "codec": "h264",
  "ok": "Input #0, mov,mp4,m4a,3gp,3g2,mj2, from 'C:\\Users\\Peter\\Desktop\\stuff\\MIUN\\quantitative_research\\video_compression\\videos\\BVI-HD\\BVI-HD_CDVL_videos\\ORIG\\RockWave_1920x1080_30fps.mp4':\n  Metadata:\n    major_brand     : isom\n    minor_version   : 512\n    compatible_brands: isomiso2avc1mp41\n    encoder         : Lavf54.28.101\n  Duration: 00:00:05.00, start: 0.000000, bitrate: 303557 kb/s\n  Stream #0:0[0x1](und): Video: h264 (High 4:4:4 Predictive) (avc1 / 0x31637661), yuv420p(progressive), 1920x1080, 303553 kb/s, 30 fps, 30 tbr, 30 tbn (default)\n    Metadata:\n      handler_name    : VideoHandler\n      vendor_id       : [0][0][0][0]\n[out#0/mp4 @ 0000024adb569a40] Codec AVOption b:a (set bitrate (in bits/s)) has not been used for any stream. The most likely reason is either wrong type (e.g. a video option with no video streams) or that it is a private option of some decoder which was not actually used for any stream.\nStream mapping:\n  Stream #0:0 -> #0:0 (h264 (native) -> h264 (libx264))\nPress [q] to stop, [?] for help\n[libx264 @ 0000024adc110a40] using cpu capabilities: MMX2 SSE2Fast SSSE3 SSE4.2 AVX FMA3 BMI2 AVX2\n[libx264 @ 0000024adc110a40] profile High, level 5.0, 4:2:0, 8-bit\n[libx264 @ 0000024adc110a40] 264 - core 165 r3222 b35605a - H.264/MPEG-4 AVC codec - Copyleft 2003-2025 - http://www.videolan.org/x264.html - options: cabac=1 ref=5 deblock=1:0:0 analyse=0x3:0x113 me=hex subme=8 psy=1 psy_rd=1.00:0.00 mixed_ref=1 me_range=16 chroma_me=1 trellis=2 8x8dct=1 cqm=0 deadzone=21,11 fast_pskip=1 chroma_qp_offset=-2 threads=18 lookahead_threads=3 sliced_threads=0 nr=0 decimate=1 interlaced=0 bluray_compat=0 constrained_intra=0 bframes=3 b_pyramid=2 b_adapt=1 b_bias=0 direct=3 weightb=1 open_gop=0 weightp=2 keyint=250 keyint_min=25 scenecut=40 intra_refresh=0 rc_lookahead=50 rc=cbr mbtree=1 bitrate=8000 ratetol=1.0 qcomp=0.60 qpmin=0 qpmax=69 qpstep=4 vbv_maxrate=8000 vbv_bufsize=8000 nal_hrd=none filler=0 ip_ratio=1.40 aq=1:1.00\nOutput #0, mp4, to 'C:\\Users\\Peter\\Desktop\\stuff\\MIUN\\quantitative_research\\video_compression\\compressed_videos\\BVI-HD\\h264\\8\\RockWave_1920x1080_30fps_h264.mp4':\n  Metadata:\n    major_brand     : isom\n    minor_version   : 512\n    compatible_brands: isomiso2avc1mp41\n    encoder         : Lavf62.3.100\n  Stream #0:0(und): Video: h264 (avc1 / 0x31637661), yuv420p(tv, progressive), 1920x1080, q=2-31, 8000 kb/s, 30 fps, 15360 tbn (default)\n    Metadata:\n      encoder         : Lavc62.11.100 libx264\n      handler_name    : VideoHandler\n      vendor_id       : [0][0][0][0]\n    Side data:\n      cpb: bitrate max/min/avg: 8000000/0/8000000 buffer size: 8000000 vbv_delay: N/A\nframe=    0 fps=0.0 q=0.0 size=       0KiB time=N/A bitrate=N/A speed=N/A elapsed=0:00:00.51    \nframe=    0 fps=0.0 q=0.0 size=       0KiB time=N/A bitrate=N/A speed=N/A elapsed=0:00:01.20    \nframe=    0 fps=0.0 q=0.0 size=       0KiB time=N/A bitrate=N/A speed=N/A elapsed=0:00:01.83    \nframe=    1 fps=0.4 q=39.0 size=       0KiB time=N/A bitrate=N/A speed=N/A elapsed=0:00:02.39    \nframe=   13 fps=4.2 q=40.0 size=     256KiB time=00:00:00.30 bitrate=6991.8kbits/s speed=0.0975x elapsed=0:00:03.07    \nframe=   29 fps=7.8 q=39.0 size=     768KiB time=00:00:00.90 bitrate=6990.9kbits/s speed=0.244x elapsed=0:00:03.69    \nframe=   47 fps= 11 q=39.0 size=    1536KiB time=00:00:01.33 bitrate=9437.5kbits/s speed=0.312x elapsed=0:00:04.27    \nframe=   62 fps= 13 q=39.0 size=    1792KiB time=00:00:01.73 bitrate=8469.5kbits/s speed=0.35x elapsed=0:00:04.94    \nframe=   73 fps= 13 q=38.0 size=    2304KiB time=00:00:02.36 bitrate=7975.2kbits/s speed=0.425x elapsed=0:00:05.56    \nframe=   93 fps= 15 q=38.0 size=    2816KiB time=00:00:03.03 bitrate=7605.2kbits/s speed=0.495x elapsed=0:00:06.12    \nframe=  113 fps= 17 q=38.0 size=    3328KiB time=00:00:03.70 bitrate=7368.5kbits/s speed=0.556x elapsed=0:00:06.65    \nframe=  133 fps= 18 q=35.0 size=    4096KiB time=00:00:04.36 bitrate=7684.3kbits/s speed=0.607x elapsed=0:00:07.19    \n[mp4 @ 0000024adb571400] Starting second pass: moving the moov atom to the beginning of the file\n[out#0/mp4 @ 0000024adb569a40] video:4791KiB audio:0KiB subtitle:0KiB other streams:0KiB global headers:0KiB muxing overhead: 0.055424%\nframe=  150 fps= 20 q=-1.0 Lsize=    4793KiB time=00:00:04.93 bitrate=7959.8kbits/s speed=0.664x elapsed=0:00:07.42    \n[libx264 @ 0000024adc110a40] frame I:2     Avg QP:33.94  size:102690\n[libx264 @ 0000024adc110a40] frame P:38    Avg QP:37.91  size: 49399\n[libx264 @ 0000024adc110a40] frame B:110   Avg QP:40.90  size: 25659\n[libx264 @ 0000024adc110a40] consecutive B-frames:  2.0%  0.0%  2.0% 96.0%\n[libx264 @ 0000024adc110a40] mb I  I16..4: 19.2% 70.4% 10.4%\n[libx264 @ 0000024adc110a40] mb P  I16..4:  3.9% 17.3%  0.9%  P16..4: 38.0% 11.5%  5.2%  0.0%  0.0%    skip:23.2%\n[libx264 @ 0000024adc110a40] mb B  I16..4:  0.2%  1.9%  0.1%  B16..8: 38.6%  7.9%  2.1%  direct: 7.4%  skip:41.9%  L0:44.0% L1:46.7% BI: 9.3%\n[libx264 @ 0000024adc110a40] 8x8 transform intra:79.0% inter:67.8%\n[libx264 @ 0000024adc110a40] direct mvs  spatial:90.9% temporal:9.1%\n[libx264 @ 0000024adc110a40] coded y,uvDC,uvAC intra: 67.4% 12.7% 0.1% inter: 23.5% 1.5% 0.0%\n[libx264 @ 0000024adc110a40] i16 v,h,dc,p: 30% 27% 19% 24%\n[libx264 @ 0000024adc110a40] i8 v,h,dc,ddl,ddr,vr,hd,vl,hu:  6%  6% 10% 12% 14% 10% 16% 11% 16%\n[libx264 @ 0000024adc110a40] i4 v,h,dc,ddl,ddr,vr,hd,vl,hu:  5%  6%  9% 10% 13% 10% 15% 10% 23%\n[libx264 @ 0000024adc110a40] i8c dc,h,v,p: 92%  6%  2%  0%\n[libx264 @ 0000024adc110a40] Weighted P-Frames: Y:7.9% UV:0.0%\n[libx264 @ 0000024adc110a40] ref P L0: 48.2% 12.6% 20.4%  9.3%  8.8%  0.7%\n[libx264 @ 0000024adc110a40] ref B L0: 85.4%  9.2%  3.8%  1.7%\n[libx264 @ 0000024adc110a40] ref B L1: 96.3%  3.7%\n[libx264 @ 0000024adc110a40] kb/s:7848.05\n",
  "seconds": 7.815855264663696,
  "probe_out": {}
}